<svg id="eFnSgr0W4911" xmlns="http://www.w3.org/2000/svg" xmlns:xlink="http://www.w3.org/1999/xlink" viewBox="0 0 24 24" shape-rendering="geometricPrecision" text-rendering="geometricPrecision"><path d="M10.0909,11.9629l9.2727-3.33203v5.53983c-.551-.3169-1.2062-.5007-1.9091-.5007-1.9581,0-3.5454,1.426-3.5454,3.185s1.5873,3.185,3.5454,3.185s3.5455-1.426,3.5455-3.185c0,0,0,.0001,0,0v-9.36264c0-1.11998,0-2.05926-.0877-2.80764-.0124-.10577-.0271-.21092-.0433-.30903-.0845-.51128-.2338-.98824-.522-1.38652-.1442-.19915-.323-.37862-.5458-.53289-.0418-.02892-.0852-.05696-.1301-.08408l-.009-.00541c-.7715-.46126-1.6388-.42827-2.5323-.22374-.8641.19781-1.9354.60063-3.249,1.09458l-2.2845.85893c-.6157.2315-1.1374.42763-1.5469.63078-.43564.21614-.81091.47106-1.09233.85094s-.39831.78928-.45206,1.23375c-.05051.41775-.05049.92577-.05046,1.5254v7.79327c-.55108-.3169-1.2062-.5007-1.9091-.5007C4.58735,15.63,3,17.056,3,18.815s1.58735,3.185,3.54545,3.185s3.54545-1.426,3.54545-3.185c0,0,0,.0001,0,0v-6.8521Z" transform="matrix(.753046 0 0 0.753046 2.963448 2.963448)" fill="#1c274c"/><rect width="0.788772" height="20.237481" rx="0.39" ry="0.39" transform="matrix(1.102787 1.095233-.805364 0.810919 20.54036 3.362609)" fill="#1c274c" stroke="#fff" stroke-width="0.2" stroke-linecap="round" stroke-linejoin="round"/></svg>
