<svg id="enT46kyB1ow1" xmlns="http://www.w3.org/2000/svg" xmlns:xlink="http://www.w3.org/1999/xlink" viewBox="0 0 500 500" shape-rendering="geometricPrecision" text-rendering="geometricPrecision"><g><g transform="matrix(.486821 0 0 0.481972 19.78986 32.317139)"><rect width="67.9745" height="327.827" rx="21" ry="21" transform="matrix(.708862 0 0 1.1105 226.12 67.9746)" fill="#ff52de" stroke-width="0" stroke-linecap="round" stroke-linejoin="round"/><rect width="67.9745" height="327.827" rx="21" ry="21" transform="matrix(-.006251-.708834 1.11046-.009794 68.1942 275.697)" fill="#ff52de" stroke-width="0" stroke-linecap="round" stroke-linejoin="round"/></g><g transform="matrix(.486821 0 0 0.481972 0.949013 22.967896)"><rect width="67.9745" height="327.827" rx="21" ry="21" transform="matrix(.708862 0 0 1.1105 226.12 67.9746)" fill="#5ce1e6" stroke-width="0" stroke-linecap="round" stroke-linejoin="round"/><rect width="67.9745" height="327.827" rx="21" ry="21" transform="matrix(-.006251-.708834 1.11046-.009794 68.1942 275.697)" fill="#5ce1e6" stroke-width="0" stroke-linecap="round" stroke-linejoin="round"/></g><g transform="matrix(.486821 0 0 0.481972 9.464713 24.573186)"><rect width="67.9745" height="327.827" rx="21" ry="21" transform="matrix(.708862 0 0 1.1105 226.12 67.9746)" fill="#fff" stroke-width="0" stroke-linecap="round" stroke-linejoin="round"/><rect width="67.9745" height="327.827" rx="21" ry="21" transform="matrix(-.006251-.708834 1.11046-.009794 68.1942 275.697)" fill="#fff" stroke-width="0" stroke-linecap="round" stroke-linejoin="round"/></g></g><g transform="matrix(.720588-.693363 0.693363 0.720588-68.013954 336.106148)"><g transform="matrix(.486821 0 0 0.481972 6.728212 33.451807)"><rect width="67.9745" height="327.827" rx="21" ry="21" transform="matrix(.708862 0 0 1.1105 226.12 67.9746)" fill="#ff52de" stroke-width="0" stroke-linecap="round" stroke-linejoin="round"/><rect width="67.9745" height="327.827" rx="21" ry="21" transform="matrix(-.006251-.708834 1.11046-.009794 68.1942 275.697)" fill="#ff52de" stroke-width="0" stroke-linecap="round" stroke-linejoin="round"/></g><g transform="matrix(.486821 0 0 0.481972 3.477441 18.713229)"><rect width="67.9745" height="327.827" rx="21" ry="21" transform="matrix(.708862 0 0 1.1105 226.12 67.9746)" fill="#5ce1e6" stroke-width="0" stroke-linecap="round" stroke-linejoin="round"/><rect width="67.9745" height="327.827" rx="21" ry="21" transform="matrix(-.006251-.708834 1.11046-.009794 68.1942 275.697)" fill="#5ce1e6" stroke-width="0" stroke-linecap="round" stroke-linejoin="round"/></g><g transform="matrix(.486821 0 0 0.481972 9.464713 24.573186)"><rect width="67.9745" height="327.827" rx="21" ry="21" transform="matrix(.708862 0 0 1.1105 226.12 67.9746)" fill="#fff" stroke-width="0" stroke-linecap="round" stroke-linejoin="round"/><rect width="67.9745" height="327.827" rx="21" ry="21" transform="matrix(-.006251-.708834 1.11046-.009794 68.1942 275.697)" fill="#fff" stroke-width="0" stroke-linecap="round" stroke-linejoin="round"/></g></g><g transform="matrix(.499935 0 0 0.499935 54.243165 20.698334)"><rect width="67.9745" height="327.827" rx="21" ry="21" transform="matrix(-.005551-.629499 0.986167-.008698 452.581101 263.738542)" fill="#5ce1e6" stroke-width="0" stroke-linecap="round" stroke-linejoin="round"/><rect width="67.9745" height="327.827" rx="21" ry="21" transform="matrix(-.005551-.629499 0.986167-.008698 485.844155 281.103245)" fill="#ff52de" stroke-width="0" stroke-linecap="round" stroke-linejoin="round"/><rect width="67.9745" height="327.827" rx="21" ry="21" transform="matrix(-.005712-.64768 1.014653-.008949 464.529193 271.047264)" fill="#fff" stroke-width="0" stroke-linecap="round" stroke-linejoin="round"/></g><g transform="matrix(.499935 0 0 0.499935 45.834125 223.981907)"><rect width="67.9745" height="327.827" rx="21" ry="21" transform="matrix(-.005551-.629499 0.986167-.008698 452.581101 263.738542)" fill="#5ce1e6" stroke-width="0" stroke-linecap="round" stroke-linejoin="round"/><rect width="67.9745" height="327.827" rx="21" ry="21" transform="matrix(-.005551-.629499 0.986167-.008698 485.844155 281.103245)" fill="#ff52de" stroke-width="0" stroke-linecap="round" stroke-linejoin="round"/><rect width="67.9745" height="327.827" rx="21" ry="21" transform="matrix(-.005712-.64768 1.014653-.008949 464.529193 271.047264)" fill="#fff" stroke-width="0" stroke-linecap="round" stroke-linejoin="round"/><g transform="translate(-16.287951-2.175811)"><ellipse rx="19.479878" ry="19.479878" transform="matrix(2.551658 0 0 2.551658 657.554982 149.974843)" fill="#ff52de" stroke-width="0"/><ellipse rx="19.479878" ry="19.479878" transform="matrix(2.551658 0 0 2.551658 636.456971 137.271023)" fill="#5ce1e6" stroke-width="0"/><ellipse rx="19.479878" ry="19.479878" transform="matrix(2.551658 0 0 2.551658 647.11283 141.968002)" fill="#fff" stroke-width="0"/></g><g transform="translate(-15.629224 217.728358)"><ellipse rx="19.479878" ry="19.479878" transform="matrix(2.551658 0 0 2.551658 657.554982 149.974843)" fill="#ff52de" stroke-width="0"/><ellipse rx="19.479878" ry="19.479878" transform="matrix(2.551658 0 0 2.551658 636.456971 137.271023)" fill="#5ce1e6" stroke-width="0"/><ellipse rx="19.479878" ry="19.479878" transform="matrix(2.551658 0 0 2.551658 647.11283 141.968002)" fill="#fff" stroke-width="0"/></g></g></svg>
