<svg id="eVdSTal5mse1" xmlns="http://www.w3.org/2000/svg" xmlns:xlink="http://www.w3.org/1999/xlink" viewBox="0 0 500 500" shape-rendering="geometricPrecision" text-rendering="geometricPrecision"><g transform="translate(20.155811 13.817175)"><rect width="301.077284" height="46.610291" rx="23.31" ry="23.31" transform="matrix(.883948 0 0 1.108108 116.931668 224.175382)" fill="#ff52de" stroke-width="0"/><ellipse rx="42.201209" ry="42.201209" transform="translate(250 151.780413)" fill="#ff52de" stroke-width="0"/><ellipse rx="42.201209" ry="42.201209" transform="translate(250 345.780006)" fill="#ff52de" stroke-width="0"/></g><g transform="translate(5.038969 1.219799)"><rect width="301.077284" height="46.610291" rx="23.31" ry="23.31" transform="matrix(.883948 0 0 1.108108 116.931668 224.175382)" fill="#5ce1e6" stroke-width="0"/><ellipse rx="42.201209" ry="42.201209" transform="translate(250 151.780413)" fill="#5ce1e6" stroke-width="0"/><ellipse rx="42.201209" ry="42.201209" transform="translate(250 345.780006)" fill="#5ce1e6" stroke-width="0"/></g><g transform="translate(13.169349 6.439591)"><rect width="301.077284" height="46.610291" rx="23.31" ry="23.31" transform="matrix(.883948 0 0 1.108108 116.931668 224.175382)" fill="#fff" stroke-width="0"/><ellipse rx="42.201209" ry="42.201209" transform="translate(250 151.780413)" fill="#fff" stroke-width="0"/><ellipse rx="42.201209" ry="42.201209" transform="translate(250 345.780006)" fill="#fff" stroke-width="0"/></g></svg>
