<svg id="ehlMvY3erKP1" xmlns="http://www.w3.org/2000/svg" xmlns:xlink="http://www.w3.org/1999/xlink" viewBox="0 0 500 500" shape-rendering="geometricPrecision" text-rendering="geometricPrecision"><g transform="matrix(.725457-.688268 0.688268 0.725457-97.020971 233.227801)"><rect width="67.974531" height="327.826536" rx="21" ry="21" transform="matrix(.708862 0 0 1.110498 226.12019 67.974644)" fill="#ff52de" stroke-width="0" stroke-linecap="round" stroke-linejoin="round"/><rect width="67.974531" height="327.826536" rx="21" ry="21" transform="matrix(-.006251-.708834 1.110455-.009794 68.194193 275.696629)" fill="#ff52de" stroke-width="0" stroke-linecap="round" stroke-linejoin="round"/></g><g transform="matrix(.725457-.688268 0.688268 0.725457-130.491846 233.22777)"><rect width="67.974531" height="327.826536" rx="21" ry="21" transform="matrix(.708862 0 0 1.110498 226.12019 67.974644)" fill="#5ce1e6" stroke-width="0" stroke-linecap="round" stroke-linejoin="round"/><rect width="67.974531" height="327.826536" rx="21" ry="21" transform="matrix(-.006251-.708834 1.110455-.009794 68.194193 275.696629)" fill="#5ce1e6" stroke-width="0" stroke-linecap="round" stroke-linejoin="round"/></g><g transform="matrix(.725457-.688268 0.688268 0.725457-113.756365 232.958911)"><rect width="67.974531" height="327.826536" rx="21" ry="21" transform="matrix(.708862 0 0 1.110498 226.12019 67.974644)" fill="#fff" stroke-width="0" stroke-linecap="round" stroke-linejoin="round"/><rect width="67.974531" height="327.826536" rx="21" ry="21" transform="matrix(-.006251-.708834 1.110455-.009794 68.194193 275.696629)" fill="#fff" stroke-width="0" stroke-linecap="round" stroke-linejoin="round"/></g></svg>
